<?xml version="1.0" encoding="utf-8" ?><svg xmlns="http://www.w3.org/2000/svg" xmlns:xlink="http://www.w3.org/1999/xlink" width="4001" height="4001" viewBox="0 0 4001 4001"><path fill="#6BBD55" d="M2000.88 347.647C2084.47 388.531 2170.43 434.097 2253.6 476.482C2350.49 525.861 2450.35 575.525 2546.29 626.342L2395.21 626.342L2395.21 2079.2C2286.86 2142.1 2131.06 2172.79 2006.85 2175.18C1868.76 2177.26 1729.18 2139.68 1607.11 2076.16L1607.11 626.342L1452.45 626.342C1631.28 532.049 1819.97 439.606 2000.88 347.647Z"/><path fill="#1F4493" d="M2450.74 688.187C2475.41 700.185 2500.37 713.164 2524.74 725.873C2690.82 812.482 2859.82 894.758 3025.43 982.157L2849.62 982.157L2849.48 1245.07C2849.19 1292.91 2849.82 1344.3 2846.44 1391.64C2836.81 1526.66 2798.5 1642.65 2731.7 1759.42C2665.83 1876.5 2562.6 1974.77 2450.7 2047.43L2450.74 688.187Z"/><path fill="#FBDB04" d="M1550.89 691.474L1552.9 693.319C1554.76 704.537 1553.69 787.826 1553.69 806.335L1553.69 1076.12L1553.61 2045.23C1433.11 1966.01 1351.13 1880.66 1276.72 1757.28C1212.22 1650.79 1171.05 1511.22 1163.91 1387.69C1160.99 1337.2 1162.11 1279.54 1162.1 1228.47L1162.15 984.165L983.506 984.165C1042.58 951.047 1114.37 916.403 1175.31 885.01L1550.89 691.474Z"/><path fill="#1F4493" d="M2074.76 2433.01L2216.03 2433.01L2216.03 2926.56L2095.85 2926.56L2095.85 2798.55L2095.86 2632.22C2058.15 2723.86 2020.98 2832.27 1985.58 2926.56L1888.54 2926.56C1850.65 2831.75 1814.28 2727.87 1777.79 2631.82L1777.8 2926.56L1657.29 2926.56L1657.24 2433.01L1799.39 2433.01L1937.74 2773.97L2074.76 2433.01Z"/><path fill="#1F4493" d="M2879.25 2429.1C3007.41 2415.37 3106.49 2477.48 3144.2 2600.77L3011.77 2600.77C3000.33 2580.5 2988.85 2564.21 2968.07 2552.71C2911.81 2521.58 2836.59 2538.33 2804.44 2595.87C2781.65 2637.29 2779.4 2682.78 2790.38 2728.58C2811.35 2816.09 2914.89 2849.84 2984.23 2794.08C2996.62 2784.11 3003.94 2771.69 3011.54 2757.8L3046.66 2757.8L3144.17 2757.8C3072.17 3011.71 2694.08 2976.81 2664.08 2718.54C2646.78 2569.59 2726.64 2447.9 2879.25 2429.1Z"/><path fill="#1F4493" d="M987.897 2427.16C1055.81 2420.84 1134.33 2437.42 1174.38 2497.86C1190.86 2522.73 1194.98 2545.33 1198.14 2574.34L1067.66 2574.34C1060.93 2524.04 1006.73 2505.47 969.352 2539.44C949.737 2557.27 960.198 2589.53 980.449 2602.63C997.104 2613.41 1016.37 2621.47 1035.58 2627.47C1105.66 2652.06 1197.47 2676.17 1203.57 2765.56C1206.28 2805.13 1196.36 2843.15 1169.72 2873.65C1135.26 2913.1 1089.7 2927.48 1038.84 2931.13C1037.31 2931.27 1035.79 2931.38 1034.26 2931.47C932.16 2937.01 838.045 2889.2 831.332 2778.6C873.784 2778.22 916.238 2778.24 958.69 2778.67C962.33 2796.1 964.649 2805.79 977.974 2819.39C1007.54 2849.55 1081.89 2835.98 1078.31 2786.51C1074.54 2747.35 1023.04 2733.4 991.531 2723.7C911.537 2699.58 829.038 2669.87 832.549 2570.32C835.824 2477.45 902.724 2436.19 987.897 2427.16Z"/><path fill="#1F4493" d="M2301.96 2433.01L2604.48 2433.01L2604.48 2529.84L2422.55 2529.84L2422.55 2629.24L2583.16 2629.24L2583.16 2722.26L2422.55 2722.26L2422.55 2767.29L2422.55 2829.83L2604.48 2829.83L2604.48 2926.56L2301.97 2926.56L2301.96 2433.01Z"/><path fill="#1F4493" d="M1277.49 2433.01L1580.03 2433.01L1580.03 2529.84L1397.97 2529.84L1397.97 2629.24L1558.66 2629.24L1558.66 2722.26L1397.97 2722.26L1397.97 2765.34L1397.97 2829.83L1580.03 2829.83L1580.03 2926.56L1277.49 2926.56L1277.49 2433.01Z"/><path fill="#1F4493" d="M2226.02 3325.71C2269.04 3318.31 2309.95 3347.07 2317.53 3390.06C2325.12 3433.05 2296.51 3474.09 2253.56 3481.84C2210.35 3489.65 2169.03 3460.84 2161.4 3417.6C2153.78 3374.36 2182.75 3333.16 2226.02 3325.71ZM2252.35 3446.91C2265.9 3440.18 2273.51 3433.77 2278.29 3418.54C2282.25 3405.88 2280.97 3392.17 2274.74 3380.47C2263.99 3360.71 2247.06 3358.12 2226.78 3360.52C2180.64 3382.64 2191.2 3455.34 2252.35 3446.91Z"/><path fill="#1F4493" d="M1889.99 3325.71C1932.99 3318.33 1973.87 3347.09 1981.45 3390.06C1989.03 3433.03 1960.46 3474.04 1917.53 3481.83C1874.31 3489.67 1832.96 3460.86 1825.33 3417.61C1817.7 3374.35 1846.7 3333.13 1889.99 3325.71ZM1916.07 3446.94C1962.16 3424.53 1952.26 3353.24 1890.76 3360.51C1844.57 3382.6 1855.21 3455.34 1916.07 3446.94Z"/><path fill="#1F4493" d="M2077.95 3090.98L2122.18 3090.98L2165.16 3196.8L2207.66 3090.98L2252.03 3090.98L2252.03 3244.84L2213.96 3244.84L2213.96 3216.62L2213.96 3154.82L2180.28 3244.84L2149.72 3244.84L2115.6 3154.01L2115.61 3244.84L2077.95 3244.84L2077.95 3090.98Z"/><path fill="#1F4493" d="M2468.68 3327.14L2512.76 3327.14L2512.76 3481.21L2475.05 3481.21L2475.05 3447.15L2475.06 3390.58C2463.33 3419.36 2451.88 3451.88 2440.84 3481.21L2410.49 3481.21C2402.23 3458.68 2386.01 3411.19 2376.18 3392.02L2376.18 3481.21L2338.62 3481.21L2338.64 3327.14L2383.21 3327.14C2397.26 3362.38 2411.54 3397.52 2426.05 3432.57L2468.68 3327.14Z"/><path fill="#1F4493" d="M1222.8 3327.14C1257.64 3326.99 1308.96 3321.55 1335.88 3345.48C1370.4 3376.16 1367.44 3425.16 1340.31 3458.89C1307.33 3488.05 1265.25 3481.61 1222.8 3481.21L1222.8 3327.14ZM1260.21 3448.39C1281.85 3448.56 1294.09 3450.14 1311.73 3436.46C1320.09 3424.08 1325.69 3408.97 1322.74 3393.85C1320.56 3382.87 1313.87 3373.31 1304.29 3367.52C1288.65 3357.96 1277.96 3359.47 1260.21 3359.71L1260.21 3448.39Z"/><path fill="#1F4493" d="M2532.3 3090.98L2570.32 3090.98L2570.32 3244.2C2563.59 3245.39 2540.48 3244.86 2532.36 3244.84L2470.26 3150.97L2470.27 3244.84L2432.39 3244.84L2432.39 3090.98L2470.2 3090.98L2532.3 3185.49L2532.3 3090.98Z"/><path fill="#1F4493" d="M2102.35 3327.14L2140.2 3327.14L2140.2 3480.93C2129.43 3481.55 2113.63 3481.14 2102.47 3481.21L2040.18 3386.87L2040.18 3481.21L2002.44 3481.21L2002.44 3327.14L2040.18 3327.14L2102.35 3421.95L2102.35 3327.14Z"/><path fill="#1F4493" d="M1663.33 3090.98C1708.88 3090.44 1804.89 3079.4 1778.58 3159.07C1774.14 3172.53 1761.55 3179.24 1749.16 3184.18L1784.51 3244.84L1753.86 3244.84C1732.6 3245.61 1717.35 3196.4 1702.72 3177.69C1700.43 3197.43 1701.31 3224.45 1701.37 3244.84L1663.33 3244.84L1663.33 3090.98ZM1701.37 3160.19C1714.71 3160.32 1728.22 3161.64 1740.26 3155.91C1755.64 3120.67 1726.7 3122.04 1701.37 3122.46L1701.37 3160.19Z"/><path fill="#1F4493" d="M1112.77 3090.98C1158.61 3090.43 1253.82 3079.31 1227.68 3159.48C1223.51 3172.28 1210.15 3179.47 1198.4 3184.04L1233.55 3244.86L1208.31 3244.84C1206.13 3244.92 1192.22 3245.11 1191.16 3243.69C1175.68 3222.72 1168.03 3198.3 1151.79 3177.63C1149.42 3197.32 1150.33 3224.47 1150.39 3244.84L1112.77 3244.84L1112.77 3090.98ZM1150.39 3160.19C1163.86 3160.31 1177.22 3161.62 1189.42 3155.91C1204.63 3120.61 1175.83 3122.04 1150.39 3122.46L1150.39 3160.19Z"/><path fill="#1F4493" d="M2649.07 3327.14L2692.66 3327.14L2748.34 3481.21L2708.42 3481.21C2706.14 3474.29 2701.94 3458.76 2697.64 3454L2642.43 3454L2633.3 3481.21L2593.34 3481.21L2649.07 3327.14ZM2652.26 3424.71L2676.94 3424.7C2682.86 3424.54 2684.79 3425.63 2688.36 3422.69C2685.66 3413.69 2674.53 3376.63 2670.08 3371.53L2652.26 3424.71Z"/><path fill="#1F4493" d="M1915.85 3090.98L1959.6 3090.98L2015.24 3244.84L1975 3244.84C1972.02 3234.98 1969.97 3228.89 1966.08 3219.3L1961.83 3217.77L1908.92 3217.77L1899.8 3244.84L1860.36 3244.84L1915.85 3090.98ZM1919.24 3188.41L1944.33 3188.41L1954.67 3188.11C1954.57 3181.43 1940.27 3139.45 1936.89 3135.01L1919.24 3188.41Z"/><path fill="#1F4493" d="M3074.13 3090.98L3117.74 3090.98L3173.31 3244.84L3133.16 3244.84C3130.24 3235.22 3128.01 3228.69 3124.21 3219.39L3120.23 3217.77L3067.18 3217.77L3058.05 3244.84L3018.5 3244.84L3074.13 3090.98ZM3100.87 3188.41L3112.23 3188.08L3113.33 3186.55C3110.03 3175.78 3100.12 3143.34 3095.06 3134.85L3077.77 3187.26C3084.76 3189.28 3093.44 3188.54 3100.87 3188.41Z"/><path fill="#1F4493" d="M1547.94 3090.98L1591.52 3090.98L1647.07 3244.84L1607.24 3244.84C1604.82 3237.4 1601.11 3222.4 1595.94 3217.77L1540.93 3217.77L1531.93 3244.84L1492.4 3244.84L1547.94 3090.98ZM1575.1 3188.41L1586.43 3187.99C1587.79 3183.87 1572.21 3140.71 1569.1 3134.67L1551 3188.3L1575.1 3188.41Z"/><path fill="#1F4493" d="M2891.97 3090.98C2922.09 3090.63 2966.58 3085.47 2992.1 3102.52C3013.95 3117.12 3015.06 3150.54 2999.15 3170.02C2986.53 3185.48 2975.96 3187.41 2957.56 3189.98L2930.25 3189.98L2930.25 3244.84L2891.97 3244.84L2891.97 3090.98ZM2930.25 3159.63C2945.15 3159.75 2954.9 3161.52 2967.73 3154.18C2980.04 3120.09 2955.45 3121.37 2930.25 3121.63L2930.25 3159.63Z"/><path fill="#1F4493" d="M2368.88 3090.98L2406.63 3090.98L2406.63 3124.8C2406.59 3148.53 2408.07 3172.79 2405.36 3196.27C2399.48 3247.12 2328.97 3261.93 2295.36 3229.57C2288.28 3222.85 2283.2 3214.3 2280.67 3204.86C2275.55 3185.91 2277.65 3115.57 2277.78 3090.98L2315.43 3090.98C2315.52 3105.21 2299.17 3247.72 2359.36 3205.35C2374.74 3194.52 2369.07 3116.24 2368.88 3090.98Z"/><path fill="#1F4493" d="M1727.35 3325.64C1770.87 3323.28 1793.37 3340.94 1809.08 3379.6L1766.95 3379.6C1729.78 3320.43 1667.68 3399.68 1709.51 3438.87C1726.6 3454.88 1752.6 3449.85 1765.23 3431.21C1767.14 3428.39 1768.03 3429.07 1771.44 3428.24L1809.09 3428.24C1803.36 3442.96 1798.33 3453.58 1786.36 3464.44C1765.12 3485.84 1714.05 3488.67 1690.22 3469.11C1633.01 3422.18 1652.68 3337.46 1727.35 3325.64Z"/><path fill="#1F4493" d="M1011.18 3089.26C1053.09 3088.31 1076.56 3104.96 1090.54 3143.52L1048.97 3143.52C1047.48 3141.07 1045.82 3138.72 1044.01 3136.49C1038.43 3129.69 1025.88 3122.83 1017.22 3123.04C962.772 3124.37 965.395 3221.46 1024.25 3211.26C1039.94 3208.55 1041.61 3192.85 1058.37 3192.04L1090.84 3192.05C1088.65 3198.02 1085.58 3205.45 1082.45 3210.89C1072.91 3227.54 1056.82 3239.43 1038.1 3243.66C928.052 3268.94 897.176 3104.81 1011.18 3089.26Z"/><path fill="#1F4493" d="M2726.59 3089.26C2767.48 3088.03 2792.49 3105.39 2805.51 3143.52L2764.1 3143.52C2756.7 3131.36 2741.55 3121.05 2728.29 3123.2C2668.48 3132.93 2691.45 3239.72 2751.31 3205.26C2762.99 3198.54 2757.52 3193.36 2773.64 3192.04L2806.03 3192.07C2795.22 3219.11 2782.05 3237.53 2751.78 3244C2642.34 3267.4 2613.22 3103.97 2726.59 3089.26Z"/><path fill="#1F4493" d="M735.89 3089.03C761.482 3088.03 812.915 3100.24 801.289 3134.91C777.672 3136.99 762.503 3139.25 753.026 3120.58C749.887 3114.4 734.929 3119.42 730.506 3126.56C723.184 3160.48 798.979 3149.54 804.279 3188.39C809.29 3225.12 789.022 3241.01 755.902 3246.4C727.664 3246.78 686.05 3235.16 690.019 3199.19C694.326 3198.39 727.149 3197.59 729.765 3201.03C735.909 3209.11 734.765 3213.86 745.866 3217.03C754.951 3215.44 763.745 3212.16 769.4 3204.43L768.485 3199.76C747.072 3176.95 697.29 3179.43 690.12 3142.88C683.56 3109.45 707.909 3094.7 735.89 3089.03Z"/><path fill="#1F4493" d="M1545.99 3327.09L1640.39 3327.14L1640.39 3357.72L1584.02 3357.72L1584.02 3387.97L1633.78 3387.97L1633.78 3417.46C1621.3 3417.66 1593.55 3414.13 1584.71 3420.09L1584.02 3428.1C1583.84 3436.75 1583.26 3441.34 1585.27 3449.64C1597.04 3451.64 1627.12 3450.68 1640.39 3450.6L1640.41 3481.21L1545.99 3481.21L1545.99 3327.09Z"/><path fill="#1F4493" d="M1381.39 3327.14L1475.84 3327.14L1475.84 3357.72L1419.31 3357.72L1419.31 3387.97L1469.23 3387.97L1469.23 3417.46C1458.76 3417.48 1427.02 3414.85 1419.75 3419.8L1419.32 3424.53L1419.26 3450.6L1475.84 3450.6L1475.84 3481.21L1381.37 3481.21L1381.39 3327.14Z"/><path fill="#1F4493" d="M1255.03 3090.98L1349.65 3090.98L1349.65 3121.4L1293 3121.4L1293 3151.65L1342.79 3151.65L1342.79 3181.21C1329.71 3181.43 1305.34 3177.84 1294.84 3183.3C1292.64 3184.45 1293.2 3190.21 1293 3193.67C1292.75 3202.32 1292.34 3205.07 1294.2 3213.34C1306.32 3215.28 1336.1 3214.35 1349.65 3214.28L1349.65 3244.84L1255.03 3244.84L1255.03 3090.98Z"/><path fill="#1F4493" d="M828.052 3090.98L922.222 3090.98L922.222 3121.4L865.543 3121.4L865.543 3151.65L915.978 3151.65L915.978 3181.21C904.702 3181.34 873.848 3178.24 866.035 3183.57L865.543 3189.76L865.532 3214.28L922.222 3214.28L922.222 3244.84L828.052 3244.84L828.052 3090.98Z"/><path fill="#1F4493" d="M1364.99 3090.98L1484.35 3090.98L1484.35 3121.4L1443.39 3121.4L1443.39 3202.95L1443.39 3244.84L1405.75 3244.84L1405.75 3121.4L1364.99 3121.4L1364.99 3090.98Z"/><path fill="#1F4493" d="M3189.85 3090.98L3227.32 3090.98L3227.32 3215.69L3276.27 3215.69L3276.27 3244.84L3189.85 3244.84L3189.85 3090.98Z"/><path fill="#1F4493" d="M1805.65 3090.98L1843.96 3090.98L1843.96 3244.84L1805.65 3244.84L1805.65 3090.98Z"/><path fill="#1F4493" d="M2596.61 3090.98L2634.7 3090.98L2634.7 3244.88L2596.61 3244.84L2596.61 3090.98Z"/><path fill="#1F4493" d="M2827.6 3090.98L2865.65 3090.98L2865.65 3244.84L2827.63 3244.84L2827.6 3090.98Z"/><path fill="#1F4493" d="M2539.23 3327.14L2576.96 3327.14L2576.96 3481.21L2539.23 3481.21L2539.23 3327.14Z"/></svg>